<svg width="60" height="60" viewBox="0 0 60 60" fill="none" xmlns="http://www.w3.org/2000/svg">
<path d="M47.4998 26.25V24.9999C47.4998 15.5719 47.4996 10.8578 44.5708 7.92885C41.6418 5 36.9279 5 27.4999 5C18.0721 5 13.358 5.00015 10.4291 7.92898C7.50023 10.8579 7.50018 15.5718 7.5001 24.9997L7.5 36.25C7.49993 44.4685 7.4999 48.578 9.7697 51.3438C10.1853 51.8503 10.6497 52.3145 11.1561 52.7303C13.9219 55 18.0312 55 26.2499 55" stroke="#005496" stroke-width="3" stroke-linecap="round" stroke-linejoin="round"/>
<path d="M17.5 17.5H37.5M17.5 27.5H27.5" stroke="#005496" stroke-width="3" stroke-linecap="round" stroke-linejoin="round"/>
<path d="M45 46.25L41.25 44.875V38.75M30 43.75C30 49.9633 35.0367 55 41.25 55C47.4633 55 52.5 49.9633 52.5 43.75C52.5 37.5367 47.4633 32.5 41.25 32.5C35.0367 32.5 30 37.5367 30 43.75Z" stroke="#005496" stroke-width="3" stroke-linecap="round" stroke-linejoin="round"/>
</svg>
